<?xml version="1.0" standalone="no"?>
<!DOCTYPE svg PUBLIC "-//W3C//DTD SVG 20010904//EN"
 "http://www.w3.org/TR/2001/REC-SVG-20010904/DTD/svg10.dtd">
<svg version="1.0" xmlns="http://www.w3.org/2000/svg"
 width="637.000000pt" height="637.000000pt" viewBox="0 0 637.000000 637.000000"
 preserveAspectRatio="xMidYMid meet">
<metadata>
Created by potrace 1.11, written by Peter Selinger 2001-2013
</metadata>
<g transform="translate(0.000000,637.000000) scale(0.100000,-0.100000)"
fill="#000000" stroke="none">
<path d="M3288 5559 c-177 -19 -201 -91 -71 -210 l60 -54 -38 -190 c-21 -104
-39 -191 -39 -193 0 -1 -57 -1 -127 0 l-128 3 -5 45 c-19 160 -195 197 -397
84 -139 -78 -161 -137 -90 -245 l17 -26 -116 -72 c-64 -40 -120 -69 -124 -64
-4 4 -39 55 -77 113 -39 58 -80 114 -92 124 -11 11 -21 23 -21 27 0 5 17 35
38 68 70 107 79 198 24 242 -110 86 -490 -153 -547 -346 -31 -101 23 -150 196
-181 166 -29 184 -42 228 -160 37 -97 39 -91 -44 -189 -98 -117 -186 -249
-238 -357 -36 -74 -46 -87 -67 -87 -63 0 -253 28 -260 39 -4 7 -10 34 -13 60
-9 71 -44 145 -88 185 -51 46 -91 49 -142 13 -65 -46 -107 -191 -107 -367 0
-171 38 -261 110 -261 38 0 62 12 121 61 26 22 56 39 68 39 17 0 211 -115 211
-125 0 -6 -30 -138 -36 -156 -3 -11 -16 -16 -42 -16 -53 0 -96 -26 -133 -79
-60 -88 -75 -186 -38 -261 26 -53 68 -84 124 -90 l42 -5 7 -76 c3 -41 6 -112
6 -156 l0 -82 -64 -27 c-89 -39 -199 -114 -285 -193 l-72 -67 -35 16 c-35 17
-89 22 -119 11 -24 -10 -45 -58 -45 -107 0 -98 185 -362 292 -418 100 -52 148
0 148 159 0 72 3 92 18 104 22 20 106 62 155 77 21 7 51 24 67 38 l30 25 12
-29 c46 -110 103 -220 152 -292 l58 -85 -20 -42 c-43 -87 -38 -156 16 -207 63
-60 173 -77 284 -42 l57 18 98 -45 c54 -25 112 -51 130 -57 31 -12 31 -14 27
-64 -3 -29 -8 -86 -12 -127 l-7 -75 -67 -6 c-74 -6 -124 -35 -159 -93 -25 -41
-25 -111 1 -153 57 -94 237 -163 425 -163 78 0 105 13 130 60 33 65 13 141
-59 218 l-45 48 14 90 c8 49 15 109 15 133 0 30 4 42 13 38 35 -13 254 -48
339 -53 l96 -6 44 -66 c33 -51 54 -72 91 -91 42 -21 52 -23 86 -12 46 13 100
70 137 143 14 29 28 54 29 56 1 1 55 16 119 32 65 17 149 43 187 59 l70 30 27
-46 c15 -25 60 -93 100 -150 39 -58 72 -107 72 -110 0 -3 -11 -29 -25 -58 -32
-64 -46 -146 -33 -192 18 -67 107 -90 224 -59 157 42 314 195 331 325 7 53
-19 105 -65 127 -31 15 -45 15 -102 6 -36 -6 -74 -14 -86 -17 -17 -5 -26 4
-58 71 -21 42 -63 113 -93 157 -30 44 -51 83 -46 87 4 5 41 35 80 68 67 56 76
60 111 55 98 -13 205 116 226 272 4 28 13 58 21 68 12 17 15 16 59 -7 25 -13
117 -48 203 -76 87 -29 161 -55 165 -59 4 -4 1 -28 -7 -55 -69 -229 98 -302
243 -107 86 115 163 343 164 486 2 165 -57 229 -162 175 -36 -18 -130 -120
-130 -141 0 -16 -17 -10 -91 36 -66 40 -153 74 -230 90 l-27 5 33 107 c18 60
36 127 40 151 6 40 9 43 31 38 33 -9 86 41 114 106 18 42 21 65 18 126 -3 69
-6 76 -37 104 -26 23 -40 29 -69 26 l-37 -3 -2 95 -3 95 88 65 c48 35 111 84
140 108 l53 45 39 -18 c87 -39 127 18 115 165 -16 187 -87 310 -180 310 -71 0
-105 -55 -112 -185 l-6 -92 -119 -53 c-65 -29 -121 -51 -122 -49 -2 2 -32 74
-66 159 -75 186 -143 332 -198 420 l-40 65 30 60 c74 146 168 260 250 301 32
16 74 26 125 31 88 7 113 24 113 77 0 64 -69 148 -204 249 -129 96 -168 117
-215 117 -64 0 -76 -48 -36 -149 l25 -64 -88 -106 c-49 -58 -115 -142 -147
-186 -32 -44 -59 -82 -61 -84 -2 -2 -30 19 -62 47 l-59 51 0 68 c0 124 -53
202 -143 211 -60 5 -101 -10 -135 -50 l-25 -30 -108 47 c-59 26 -110 51 -114
54 -4 3 -2 89 3 190 7 144 13 189 25 202 9 10 59 34 112 55 111 43 142 70 142
124 0 81 -95 132 -293 159 -86 12 -97 12 -209 0z m284 -113 c27 -8 64 -23 83
-32 l36 -17 -63 -30 c-40 -20 -90 -57 -135 -101 -82 -82 -93 -107 -114 -279
l-13 -108 -25 6 c-14 4 -27 7 -28 8 0 1 17 81 39 177 29 132 38 191 36 238 -4
68 -14 82 -59 82 -27 0 -87 39 -103 67 -8 15 5 15 145 10 94 -4 173 -12 201
-21z m-1522 -341 c0 -9 -25 -55 -55 -102 -74 -117 -75 -145 -10 -213 23 -25
67 -81 97 -125 72 -107 70 -103 59 -110 -6 -3 -28 25 -49 62 -68 115 -98 132
-280 157 -127 18 -192 40 -192 65 0 35 83 132 157 185 92 65 162 94 231 95 31
1 42 -3 42 -14z m778 -171 l25 -28 -89 -22 c-49 -12 -115 -32 -147 -44 -32
-12 -60 -20 -61 -18 -6 6 -26 71 -24 73 15 13 103 51 138 60 75 20 129 13 158
-21z m1776 -84 c98 -73 126 -99 158 -139 l27 -35 -72 -18 c-39 -10 -89 -30
-111 -45 -66 -43 -167 -159 -227 -260 l-57 -95 -31 46 c-17 24 -31 48 -31 52
0 4 -7 12 -15 18 -17 12 -25 -1 133 214 33 45 77 112 97 148 40 72 42 97 11
167 l-17 39 31 -19 c17 -10 64 -43 104 -73z m-1282 -164 c354 -93 747 -355
940 -627 71 -99 114 -181 180 -339 33 -80 94 -224 136 -320 103 -239 115 -284
119 -455 7 -231 -21 -349 -142 -600 -115 -240 -297 -456 -500 -591 -111 -74
-245 -142 -332 -170 -94 -30 -245 -53 -264 -41 -15 9 -21 8 -33 -8 -14 -19
-27 -20 -248 -20 -262 0 -338 6 -453 35 -44 11 -85 18 -93 15 -7 -2 -10 0 -7
5 3 6 -4 10 -16 10 -54 0 -405 157 -524 235 -94 61 -262 236 -319 333 -126
213 -186 471 -186 804 0 464 100 807 331 1131 229 322 545 542 892 622 45 10
110 13 242 10 153 -3 194 -7 277 -29z m586 2 c20 -23 46 -77 39 -84 -2 -2 -36
17 -76 42 -52 34 -69 49 -59 55 25 17 74 10 96 -13z m-2663 -617 c17 -25 34
-73 46 -128 11 -48 26 -93 34 -99 8 -6 69 -17 135 -24 66 -8 124 -17 130 -20
6 -4 2 -29 -11 -67 l-20 -62 -102 66 c-69 45 -112 67 -133 67 -19 0 -56 -16
-98 -43 -62 -39 -70 -41 -84 -27 -21 21 -30 225 -12 293 23 92 69 109 115 44z
m3796 -257 c39 -20 75 -98 84 -179 3 -33 8 -70 11 -82 4 -20 1 -21 -48 -16
-51 5 -55 3 -96 -35 -23 -23 -70 -58 -105 -78 -34 -21 -78 -50 -98 -65 l-35
-28 -22 67 c-12 36 -18 69 -14 73 4 3 60 25 125 49 144 52 147 56 147 198 0
87 4 112 17 112 2 0 18 -7 34 -16z m-3575 -566 c-3 -24 -8 -79 -11 -123 -10
-138 -8 -136 -66 -79 -42 41 -49 54 -49 87 0 69 63 157 112 157 18 0 20 -5 14
-42z m3364 -330 c11 -39 0 -81 -34 -123 -14 -19 -15 -17 -16 35 0 30 3 79 7
109 5 49 7 52 20 35 7 -10 18 -35 23 -56z m-3334 -521 l21 -97 -49 -15 c-71
-21 -162 -72 -213 -120 l-45 -41 0 -97 c0 -116 -6 -120 -82 -49 -46 43 -178
219 -178 238 0 4 13 -5 30 -21 27 -26 32 -27 56 -16 15 6 65 48 113 92 86 80
297 231 316 225 5 -1 19 -46 31 -99z m3725 -109 c28 -51 -21 -265 -90 -392
-34 -65 -83 -116 -110 -116 -18 0 -20 4 -15 28 4 15 15 45 24 67 31 72 34 117
10 147 -31 41 -214 98 -379 119 l-90 11 36 72 c19 39 36 72 38 74 1 1 26 -3
56 -9 76 -16 165 -60 227 -113 77 -66 90 -63 163 35 74 100 107 120 130 77z
m-881 -453 c-7 -8 -17 -15 -23 -15 -5 0 -2 9 8 20 21 23 35 19 15 -5z m-2443
-137 c71 -60 73 -63 46 -66 -40 -5 -96 14 -122 42 -18 19 -22 31 -16 55 4 17
9 31 12 31 3 0 39 -28 80 -62z m880 -174 c-3 -3 -12 -4 -19 -1 -8 3 -5 6 6 6
11 1 17 -2 13 -5z m1258 -111 c42 -60 88 -130 102 -158 44 -87 44 -87 153 -80
76 5 99 4 115 -8 20 -15 19 -16 -11 -59 -47 -64 -136 -133 -202 -153 -68 -22
-140 -24 -152 -5 -12 19 13 75 54 120 43 48 53 88 32 132 -9 18 -60 91 -113
162 -90 120 -95 130 -78 143 11 7 20 13 21 13 1 0 37 -48 79 -107z m-1477 -48
c2 -1 -6 -18 -16 -36 -18 -31 -30 -90 -47 -236 -7 -57 0 -77 52 -137 18 -22
33 -44 33 -49 0 -13 -129 1 -217 24 -71 18 -135 51 -163 84 -13 15 -12 19 10
37 20 16 35 19 80 15 91 -7 109 10 130 122 5 29 10 91 10 137 l0 83 63 -21
c34 -12 63 -22 65 -23z m760 -77 c-9 -13 -26 -29 -40 -37 -22 -13 -29 -12 -63
5 -71 37 -56 46 79 52 38 2 38 2 24 -20z"/>
<path d="M2920 4536 c-64 -18 -126 -52 -144 -78 -20 -29 -20 -87 -1 -115 9
-12 42 -36 75 -54 l60 -32 -6 -91 c-2 -50 -7 -110 -9 -133 -7 -68 12 -205 33
-233 23 -30 54 -37 72 -16 10 13 10 26 1 60 -6 26 -11 135 -11 261 0 126 -4
224 -10 235 -6 10 -38 31 -72 47 l-61 27 34 15 c37 16 259 22 293 8 16 -6 14
-12 -23 -52 -22 -24 -42 -54 -45 -67 -3 -13 -7 -96 -10 -186 -5 -129 -3 -170
8 -197 16 -37 26 -41 56 -25 43 23 47 96 18 307 l-11 82 41 45 c67 72 68 125
5 173 -34 26 -43 28 -142 30 -63 1 -124 -3 -151 -11z"/>
<path d="M3715 4381 c-54 -23 -56 -70 -8 -190 l26 -65 -46 -85 c-56 -107 -66
-165 -26 -159 15 2 39 34 85 113 69 121 76 153 45 213 -10 20 -22 48 -26 60
-6 22 -5 23 17 17 43 -13 132 -78 198 -144 l65 -65 -55 -8 c-68 -10 -84 -26
-141 -136 -37 -71 -41 -85 -31 -107 25 -55 73 -19 114 85 23 60 35 70 90 70
14 0 40 12 57 26 26 21 31 33 31 67 0 54 -26 95 -109 177 -99 98 -226 156
-286 131z"/>
<path d="M2165 4045 c-122 -59 -274 -221 -291 -309 -14 -80 47 -123 159 -112
34 3 75 7 91 8 28 3 35 -6 147 -182 124 -195 143 -214 174 -167 15 23 13 29
-36 127 -54 111 -108 195 -173 274 l-40 48 -60 -8 c-80 -11 -164 -10 -176 2
-16 16 20 71 81 128 70 65 171 117 239 124 58 5 63 -4 30 -68 -33 -64 -27 -86
56 -216 42 -65 98 -157 124 -204 38 -69 52 -85 71 -85 15 0 29 10 38 27 15 25
14 31 -11 80 -14 29 -64 107 -110 173 -132 188 -122 165 -98 216 28 63 26 123
-5 154 -38 39 -119 35 -210 -10z"/>
<path d="M3472 3795 c-43 -44 -44 -46 -40 -98 12 -141 151 -274 237 -226 39
22 65 76 65 134 0 74 -27 136 -84 189 -42 39 -55 46 -91 46 -36 0 -48 -6 -87
-45z m104 -107 c89 -82 102 -157 16 -92 -31 24 -92 107 -92 126 0 20 34 5 76
-34z"/>
<path d="M2995 3651 c-55 -14 -100 -44 -174 -115 -101 -97 -131 -146 -131
-211 0 -43 5 -56 28 -80 62 -61 194 -88 300 -61 89 22 138 51 202 115 63 63
86 120 78 195 -7 58 -35 96 -95 129 -53 28 -154 42 -208 28z m21 -121 c79 -10
154 -41 173 -72 11 -18 8 -25 -30 -64 -58 -59 -127 -88 -210 -87 -64 1 -148
27 -162 50 -7 11 133 183 148 183 5 0 42 -5 81 -10z"/>
<path d="M4222 3463 c-42 -20 -68 -54 -89 -113 l-17 -48 -140 -4 c-115 -3
-148 -7 -181 -23 -37 -18 -40 -23 -40 -60 0 -37 2 -40 28 -39 15 0 102 1 193
2 l166 2 28 28 c20 20 30 42 35 81 12 85 64 119 92 60 19 -40 26 -185 14 -273
-6 -44 -13 -82 -16 -84 -7 -8 -45 29 -45 44 0 31 -36 33 -165 10 -112 -20
-132 -27 -152 -50 -26 -31 -30 -68 -8 -86 21 -18 89 -7 182 30 l77 30 33 -32
c65 -63 134 -29 159 78 17 72 19 307 3 370 -13 52 -57 94 -97 94 -15 0 -42 -8
-60 -17z"/>
<path d="M3385 3190 c-30 -12 -65 -49 -65 -67 0 -9 7 -25 16 -34 16 -17 15
-22 -7 -71 -32 -72 -34 -210 -3 -278 45 -98 122 -140 186 -103 47 27 95 128
110 229 9 67 9 87 -5 135 -41 138 -147 225 -232 189z m81 -182 c53 -57 69
-156 40 -237 -17 -47 -31 -49 -66 -11 -56 60 -69 147 -40 253 12 41 25 40 66
-5z"/>
<path d="M2815 3021 c-48 -12 -72 -29 -102 -69 -15 -20 -51 -64 -80 -96 -67
-75 -103 -146 -103 -204 0 -57 12 -77 63 -104 35 -18 58 -22 137 -22 108 -1
174 19 257 74 111 75 147 130 147 227 1 54 -3 66 -30 99 -57 71 -200 118 -289
95z m110 -166 c65 -21 100 -47 92 -69 -4 -9 -28 -30 -54 -46 -87 -55 -223 -83
-293 -60 l-39 13 25 36 c13 20 50 62 81 94 55 56 60 58 98 53 22 -3 63 -12 90
-21z"/>
<path d="M1807 2929 c-24 -14 -47 -62 -47 -99 0 -47 38 -211 65 -280 29 -73
43 -97 92 -151 58 -64 123 -47 144 37 7 25 17 47 23 49 6 1 76 17 156 35 147
32 182 49 196 92 6 21 -20 58 -42 58 -7 0 -62 -16 -121 -35 -59 -19 -126 -38
-148 -41 -79 -11 -94 -22 -111 -80 -8 -30 -19 -54 -24 -54 -18 0 -70 79 -93
142 -30 78 -62 216 -53 226 4 4 32 -19 63 -51 30 -31 61 -57 69 -57 19 0 280
58 321 71 40 13 53 47 27 67 -24 18 -125 10 -243 -18 l-85 -21 -35 40 c-38 42
-96 81 -121 81 -8 0 -23 -5 -33 -11z"/>
<path d="M4284 2660 c-80 -7 -120 -27 -130 -65 -13 -51 -5 -54 119 -48 107 5
115 5 136 -16 29 -29 26 -67 -9 -139 -30 -59 -88 -122 -113 -122 -30 0 -80 43
-98 85 -11 25 -26 45 -33 45 -44 0 -53 -92 -16 -159 46 -81 138 -106 212 -56
77 52 157 210 160 313 3 128 -63 175 -228 162z"/>
<path d="M3692 2448 c-17 -17 -15 -50 7 -106 24 -60 51 -188 51 -238 0 -32 7
-44 53 -86 l52 -49 -30 -25 c-81 -67 -234 -114 -275 -84 -13 9 -9 16 21 43 46
41 62 73 56 107 -9 43 -147 344 -165 357 -17 14 -35 4 -53 -29 -11 -20 28
-147 81 -264 16 -37 30 -71 30 -76 0 -5 -13 -29 -30 -53 -16 -23 -35 -64 -42
-89 -11 -42 -10 -48 9 -73 20 -27 24 -28 109 -28 84 0 94 3 175 41 98 47 150
89 174 140 26 55 14 95 -44 146 l-48 43 -7 87 c-12 174 -72 288 -124 236z"/>
<path d="M2752 2418 c-11 -18 -23 -49 -27 -68 -4 -19 -17 -73 -30 -120 -13
-47 -29 -104 -35 -127 l-10 -41 -58 5 c-102 9 -172 -44 -172 -130 0 -49 20
-79 81 -118 78 -49 162 -79 255 -90 108 -12 157 -1 179 41 20 39 19 56 -10
119 -24 52 -25 56 -11 100 26 81 67 309 64 353 -2 35 -7 44 -25 46 -13 2 -25
-4 -31 -15 -13 -25 -48 -159 -56 -213 -3 -25 -16 -90 -28 -144 -20 -93 -21
-102 -6 -142 l16 -44 -32 0 c-54 1 -149 26 -205 53 -67 34 -105 63 -91 72 9 5
85 -6 135 -20 39 -11 56 26 105 232 27 109 52 209 58 224 23 58 -33 81 -66 27z"/>
</g>
</svg>
